<svg xmlns="http://www.w3.org/2000/svg" viewBox="0 0 32 32">
  <defs>
    <radialGradient id="f-s" cx="47%" cy="37%" r="64%">
      <stop offset="0%" stop-color="#ffffff"/>
      <stop offset="40%" stop-color="#b0f0ff"/>
      <stop offset="100%" stop-color="#0a60ff"/>
    </radialGradient>
    <linearGradient id="f-metal" x1="4" y1="3" x2="28" y2="29">
      <stop offset="0%" stop-color="#fff8ec"/>
      <stop offset="50%" stop-color="#9ecae8"/>
      <stop offset="100%" stop-color="#2e75b6"/>
    </linearGradient>
    <linearGradient id="f-bezel" x1="0" y1="16" x2="32" y2="16">
      <stop offset="0%" stop-color="#c8a060"/>
      <stop offset="50%" stop-color="#d4ecf8"/>
      <stop offset="100%" stop-color="#c8a060"/>
    </linearGradient>
    <filter id="f-core"><feGaussianBlur stdDeviation="1.2" result="b"/><feMerge><feMergeNode in="b"/><feMergeNode in="SourceGraphic"/></feMerge></filter>
  </defs>
  <rect width="32" height="32" rx="6" fill="#07182d"/>
  <circle cx="16" cy="16" r="13" stroke="url(#f-bezel)" stroke-width="1.1" fill="none"/>
  <g stroke="#e8dcc8" stroke-width=".55" opacity=".7" stroke-linecap="round">
    <line x1="16" y1="3.5" x2="16" y2="5.5"/><line x1="16" y1="26.5" x2="16" y2="28.5"/>
    <line x1="3.5" y1="16" x2="5.5" y2="16"/><line x1="26.5" y1="16" x2="28.5" y2="16"/>
    <line x1="7.2" y1="7.2" x2="8.6" y2="8.6"/><line x1="24.8" y1="24.8" x2="23.4" y2="23.4"/>
    <line x1="24.8" y1="7.2" x2="23.4" y2="8.6"/><line x1="7.2" y1="24.8" x2="8.6" y2="23.4"/>
  </g>
  <circle cx="16" cy="16" r="9" stroke="#58acd8" stroke-width=".5" fill="none" opacity=".45"/>
  <path fill="url(#f-metal)" d="M16 5 L17.6 12.5 L16 11.5 L14.4 12.5 Z"/>
  <path fill="#2e75b6" d="M16 27 L17.6 19.5 L16 20.5 L14.4 19.5 Z"/>
  <path fill="url(#f-metal)" d="M5 16 L12.5 14.4 L11.5 16 L12.5 17.6 Z"/>
  <path fill="#2e75b6" d="M27 16 L19.5 14.4 L20.5 16 L19.5 17.6 Z"/>
  <circle cx="23.5" cy="8.5" r="1.6" fill="#ff9000"/>
  <circle cx="24" cy="23.5" r="1.6" fill="#ff9000"/>
  <circle cx="8.5" cy="23.5" r="1.6" fill="#70ad47"/>
  <circle cx="8" cy="8.5" r="1.6" fill="#02c8ff"/>
  <circle cx="16" cy="16" r="5.5" fill="#02c8ff" opacity=".14" filter="url(#f-core)"/>
  <circle cx="16" cy="16" r="3.4" fill="url(#f-s)" filter="url(#f-core)"/>
  <circle cx="15" cy="15" r="1" fill="#fff" opacity=".75"/>
</svg>
