<svg xmlns="http://www.w3.org/2000/svg" viewBox="0 0 100 100" fill="none" aria-hidden="true">
  <defs>
    <linearGradient id="brass" x1="15" y1="10" x2="85" y2="90"><stop offset="0%" stop-color="#f0d8a8"/><stop offset="40%" stop-color="#c9a05a"/><stop offset="100%" stop-color="#8a6428"/></linearGradient>
    <radialGradient id="glass" cx="45%" cy="40%" r="60%"><stop offset="0%" stop-color="#9eefff"/><stop offset="100%" stop-color="#1a5a9a"/></radialGradient>
  </defs>
  <circle cx="50" cy="50" r="46" fill="#0a1520" stroke="url(#brass)" stroke-width="2.2"/>
  <circle cx="50" cy="50" r="40" stroke="#58acd8" stroke-width=".8" opacity=".45"/>
  <g stroke="#d4e8f4" stroke-width=".7" opacity=".7" stroke-linecap="round">
    <g transform="rotate(0 50 50)"><line x1="50" y1="6" x2="50" y2="10"/></g>
    <g transform="rotate(15 50 50)"><line x1="50" y1="6" x2="50" y2="9"/></g>
    <g transform="rotate(30 50 50)"><line x1="50" y1="6" x2="50" y2="9"/></g>
    <g transform="rotate(45 50 50)"><line x1="50" y1="6" x2="50" y2="10"/></g>
    <g transform="rotate(60 50 50)"><line x1="50" y1="6" x2="50" y2="9"/></g>
    <g transform="rotate(75 50 50)"><line x1="50" y1="6" x2="50" y2="9"/></g>
    <g transform="rotate(90 50 50)"><line x1="50" y1="6" x2="50" y2="10"/></g>
    <g transform="rotate(105 50 50)"><line x1="50" y1="6" x2="50" y2="9"/></g>
    <g transform="rotate(120 50 50)"><line x1="50" y1="6" x2="50" y2="9"/></g>
    <g transform="rotate(135 50 50)"><line x1="50" y1="6" x2="50" y2="10"/></g>
    <g transform="rotate(150 50 50)"><line x1="50" y1="6" x2="50" y2="9"/></g>
    <g transform="rotate(165 50 50)"><line x1="50" y1="6" x2="50" y2="9"/></g>
    <g transform="rotate(180 50 50)"><line x1="50" y1="6" x2="50" y2="10"/></g>
    <g transform="rotate(195 50 50)"><line x1="50" y1="6" x2="50" y2="9"/></g>
    <g transform="rotate(210 50 50)"><line x1="50" y1="6" x2="50" y2="9"/></g>
    <g transform="rotate(225 50 50)"><line x1="50" y1="6" x2="50" y2="10"/></g>
    <g transform="rotate(240 50 50)"><line x1="50" y1="6" x2="50" y2="9"/></g>
    <g transform="rotate(255 50 50)"><line x1="50" y1="6" x2="50" y2="9"/></g>
    <g transform="rotate(270 50 50)"><line x1="50" y1="6" x2="50" y2="10"/></g>
    <g transform="rotate(285 50 50)"><line x1="50" y1="6" x2="50" y2="9"/></g>
    <g transform="rotate(300 50 50)"><line x1="50" y1="6" x2="50" y2="9"/></g>
    <g transform="rotate(315 50 50)"><line x1="50" y1="6" x2="50" y2="10"/></g>
    <g transform="rotate(330 50 50)"><line x1="50" y1="6" x2="50" y2="9"/></g>
    <g transform="rotate(345 50 50)"><line x1="50" y1="6" x2="50" y2="9"/></g>
  </g>
  <path d="M50 18 L54 44 L50 40 L46 44 Z" fill="#58acd8"/>
  <path d="M50 82 L54 56 L50 60 L46 56 Z" fill="#2e75b6"/>
  <path d="M18 50 L44 46 L40 50 L44 54 Z" fill="#58acd8"/>
  <path d="M82 50 L56 46 L60 50 L56 54 Z" fill="#2e75b6"/>
  <circle cx="50" cy="50" r="11" fill="url(#glass)" stroke="#7ee8ff" stroke-width=".8"/>
  <circle cx="47" cy="47" r="3" fill="#fff" opacity=".45"/>
  <circle cx="72" cy="28" r="4.5" fill="#ff9000"/><circle cx="76" cy="70" r="4.5" fill="#ff9000"/>
  <circle cx="28" cy="72" r="4.5" fill="#70ad47"/><circle cx="26" cy="30" r="4.5" fill="#02c8ff"/>
</svg>
