<svg xmlns="http://www.w3.org/2000/svg" viewBox="0 0 100 100" fill="none" aria-hidden="true">
  <defs>
    <radialGradient id="sphere" cx="48%" cy="38%" r="62%"><stop offset="0%" stop-color="#e8fbff"/><stop offset="40%" stop-color="#7ee8ff"/><stop offset="70%" stop-color="#02c8ff"/><stop offset="100%" stop-color="#0a60ff"/></radialGradient>
    <linearGradient id="metal" x1="15" y1="10" x2="85" y2="90"><stop offset="0%" stop-color="#f0f8fc"/><stop offset="30%" stop-color="#9ecae8"/><stop offset="55%" stop-color="#58acd8"/><stop offset="100%" stop-color="#2e75b6"/></linearGradient>
    <linearGradient id="metalDark" x1="85" y1="15" x2="15" y2="85"><stop offset="0%" stop-color="#143a5c"/><stop offset="50%" stop-color="#2e75b6"/><stop offset="100%" stop-color="#6eb0d8"/></linearGradient>
    <linearGradient id="bezel" x1="0" y1="0" x2="100" y2="100"><stop offset="0%" stop-color="#e8d4a8"/><stop offset="40%" stop-color="#b8d4ea"/><stop offset="100%" stop-color="#58acd8"/></linearGradient>
    <radialGradient id="halo" cx="50%" cy="50%" r="50%"><stop offset="50%" stop-color="#02c8ff" stop-opacity="0"/><stop offset="82%" stop-color="#02c8ff" stop-opacity=".3"/><stop offset="100%" stop-color="#02c8ff" stop-opacity="0"/></radialGradient>
    <filter id="glow"><feGaussianBlur stdDeviation="2.8" result="b"/><feMerge><feMergeNode in="b"/><feMergeNode in="SourceGraphic"/></feMerge></filter>
    <filter id="soft"><feGaussianBlur stdDeviation="1.6" result="b"/><feMerge><feMergeNode in="b"/><feMergeNode in="SourceGraphic"/></feMerge></filter>
  </defs>
  <circle cx="50" cy="50" r="47" fill="url(#halo)"/>
  <circle cx="50" cy="50" r="44.5" stroke="url(#bezel)" stroke-width="1.8" opacity=".85"/>
  <circle cx="50" cy="50" r="39" stroke="#58acd8" stroke-width=".5" opacity=".4"/>
  <g stroke="#d4e8f4" stroke-width=".65" opacity=".65" stroke-linecap="round">
    <g transform="rotate(0 50 50)"><line x1="50" y1="5.5" x2="50" y2="8.5"/></g>
    <g transform="rotate(15 50 50)"><line x1="50" y1="5.5" x2="50" y2="7.8"/></g>
    <g transform="rotate(30 50 50)"><line x1="50" y1="5.5" x2="50" y2="7.8"/></g>
    <g transform="rotate(45 50 50)"><line x1="50" y1="5.5" x2="50" y2="8.5"/></g>
    <g transform="rotate(60 50 50)"><line x1="50" y1="5.5" x2="50" y2="7.8"/></g>
    <g transform="rotate(75 50 50)"><line x1="50" y1="5.5" x2="50" y2="7.8"/></g>
    <g transform="rotate(90 50 50)"><line x1="50" y1="5.5" x2="50" y2="8.5"/></g>
    <g transform="rotate(105 50 50)"><line x1="50" y1="5.5" x2="50" y2="7.8"/></g>
    <g transform="rotate(120 50 50)"><line x1="50" y1="5.5" x2="50" y2="7.8"/></g>
    <g transform="rotate(135 50 50)"><line x1="50" y1="5.5" x2="50" y2="8.5"/></g>
    <g transform="rotate(150 50 50)"><line x1="50" y1="5.5" x2="50" y2="7.8"/></g>
    <g transform="rotate(165 50 50)"><line x1="50" y1="5.5" x2="50" y2="7.8"/></g>
    <g transform="rotate(180 50 50)"><line x1="50" y1="5.5" x2="50" y2="8.5"/></g>
    <g transform="rotate(195 50 50)"><line x1="50" y1="5.5" x2="50" y2="7.8"/></g>
    <g transform="rotate(210 50 50)"><line x1="50" y1="5.5" x2="50" y2="7.8"/></g>
    <g transform="rotate(225 50 50)"><line x1="50" y1="5.5" x2="50" y2="8.5"/></g>
    <g transform="rotate(240 50 50)"><line x1="50" y1="5.5" x2="50" y2="7.8"/></g>
    <g transform="rotate(255 50 50)"><line x1="50" y1="5.5" x2="50" y2="7.8"/></g>
    <g transform="rotate(270 50 50)"><line x1="50" y1="5.5" x2="50" y2="8.5"/></g>
    <g transform="rotate(285 50 50)"><line x1="50" y1="5.5" x2="50" y2="7.8"/></g>
    <g transform="rotate(300 50 50)"><line x1="50" y1="5.5" x2="50" y2="7.8"/></g>
    <g transform="rotate(315 50 50)"><line x1="50" y1="5.5" x2="50" y2="8.5"/></g>
    <g transform="rotate(330 50 50)"><line x1="50" y1="5.5" x2="50" y2="7.8"/></g>
    <g transform="rotate(345 50 50)"><line x1="50" y1="5.5" x2="50" y2="7.8"/></g>
  </g>
  <path d="M63 22 A24 24 0 0 1 80 42" stroke="#02c8ff" stroke-width=".9" opacity=".35"/>
  <path d="M80 58 A24 24 0 0 1 63 78" stroke="#ff9000" stroke-width=".9" opacity=".38"/>
  <path d="M37 78 A24 24 0 0 1 20 58" stroke="#70ad47" stroke-width=".9" opacity=".35"/>
  <circle cx="50" cy="50" r="32" stroke="#58acd8" stroke-width=".8" opacity=".38"/>
  <circle cx="50" cy="50" r="24" stroke="#58acd8" stroke-width=".85" opacity=".48"/>
  <circle cx="50" cy="50" r="16" stroke="#58acd8" stroke-width=".85" opacity=".58"/>
  <g filter="url(#glow)">
    <path fill="url(#metal)" d="M50 9 L55.2 38 L50 33.5 L44.8 38 Z"/><path fill="url(#metalDark)" d="M50 91 L55.2 62 L50 66.5 L44.8 62 Z"/>
    <path fill="url(#metal)" d="M9 50 L38 44.8 L33.5 50 L38 55.2 Z"/><path fill="url(#metalDark)" d="M91 50 L62 44.8 L66.5 50 L62 55.2 Z"/>
    <path fill="url(#metal)" opacity=".94" d="M21 21 L41 39 L37 43 L19 25 Z"/><path fill="url(#metalDark)" opacity=".94" d="M79 79 L59 61 L63 57 L81 75 Z"/>
    <path fill="url(#metalDark)" opacity=".94" d="M79 21 L61 39 L57 35 L75 17 Z"/><path fill="url(#metal)" opacity=".94" d="M21 79 L39 61 L43 65 L25 83 Z"/>
  </g>
  <g stroke-width="1.2" opacity=".88">
    <line x1="50" y1="50" x2="75" y2="23" stroke="#ff9000"/><line x1="50" y1="50" x2="77" y2="73" stroke="#ff9000"/>
    <line x1="50" y1="50" x2="27" y2="75" stroke="#70ad47"/><line x1="50" y1="50" x2="25" y2="27" stroke="#02c8ff"/>
  </g>
  <g filter="url(#soft)">
    <circle cx="75" cy="23" r="5.4" fill="#ff9000"/><circle cx="77" cy="73" r="5.4" fill="#ff9000"/>
    <circle cx="27" cy="75" r="5.4" fill="#70ad47"/><circle cx="25" cy="27" r="5.4" fill="#02c8ff"/>
  </g>
  <circle cx="50" cy="50" r="10.5" fill="url(#sphere)" filter="url(#glow)"/>
  <circle cx="46.5" cy="46" r="3.2" fill="#fff" opacity=".65"/>
</svg>
