<svg xmlns="http://www.w3.org/2000/svg" viewBox="0 0 100 100" fill="none" aria-hidden="true">
  <defs>
    <radialGradient id="sphere" cx="45%" cy="35%" r="65%"><stop offset="0%" stop-color="#ffffff"/><stop offset="25%" stop-color="#b8f4ff"/><stop offset="55%" stop-color="#02c8ff"/><stop offset="100%" stop-color="#0848b8"/></radialGradient>
    <radialGradient id="coreHalo" cx="50%" cy="50%" r="50%"><stop offset="0%" stop-color="#02c8ff" stop-opacity=".45"/><stop offset="70%" stop-color="#02c8ff" stop-opacity=".08"/><stop offset="100%" stop-color="#02c8ff" stop-opacity="0"/></radialGradient>
    <linearGradient id="metal" x1="18" y1="12" x2="82" y2="88"><stop offset="0%" stop-color="#d4ecf8"/><stop offset="35%" stop-color="#58acd8"/><stop offset="65%" stop-color="#2e75b6"/><stop offset="100%" stop-color="#8ec8e8"/></linearGradient>
    <linearGradient id="metalDark" x1="82" y1="18" x2="18" y2="82"><stop offset="0%" stop-color="#1a4a72"/><stop offset="50%" stop-color="#2e75b6"/><stop offset="100%" stop-color="#58acd8"/></linearGradient>
    <radialGradient id="halo" cx="50%" cy="50%" r="50%"><stop offset="55%" stop-color="#02c8ff" stop-opacity="0"/><stop offset="88%" stop-color="#02c8ff" stop-opacity=".28"/><stop offset="100%" stop-color="#02c8ff" stop-opacity="0"/></radialGradient>
    <filter id="glow"><feGaussianBlur stdDeviation="3.2" result="b"/><feMerge><feMergeNode in="b"/><feMergeNode in="SourceGraphic"/></feMerge></filter>
    <filter id="coreGlow"><feGaussianBlur stdDeviation="4.5" result="b"/><feMerge><feMergeNode in="b"/><feMergeNode in="SourceGraphic"/></feMerge></filter>
    <filter id="soft"><feGaussianBlur stdDeviation="1.4" result="b"/><feMerge><feMergeNode in="b"/><feMergeNode in="SourceGraphic"/></feMerge></filter>
  </defs>
  <circle cx="50" cy="50" r="46" fill="url(#halo)"/>
  <circle cx="50" cy="50" r="44" stroke="url(#metal)" stroke-width="1.4" opacity=".75"/>
  <circle cx="50" cy="50" r="38.5" stroke="#58acd8" stroke-width=".6" opacity=".35"/>
  <g stroke="#b8d4ea" stroke-width=".9" opacity=".55" stroke-linecap="round">
    <line x1="50" y1="7" x2="50" y2="11"/><line x1="50" y1="89" x2="50" y2="93"/><line x1="7" y1="50" x2="11" y2="50"/><line x1="89" y1="50" x2="93" y2="50"/>
    <line x1="23.8" y1="23.8" x2="26.6" y2="26.6"/><line x1="73.4" y1="73.4" x2="76.2" y2="76.2"/><line x1="76.2" y1="23.8" x2="73.4" y2="26.6"/><line x1="26.6" y1="73.4" x2="23.8" y2="76.2"/>
  </g>
  <path d="M62 24 A22 22 0 0 1 78 42" stroke="#02c8ff" stroke-width=".8" opacity=".32"/>
  <path d="M78 58 A22 22 0 0 1 62 76" stroke="#ff9000" stroke-width=".8" opacity=".36"/>
  <path d="M38 76 A22 22 0 0 1 22 58" stroke="#70ad47" stroke-width=".8" opacity=".32"/>
  <circle cx="50" cy="50" r="32" stroke="#58acd8" stroke-width=".9" opacity=".42"/>
  <circle cx="50" cy="50" r="24" stroke="#58acd8" stroke-width=".9" opacity=".52"/>
  <circle cx="50" cy="50" r="16" stroke="#58acd8" stroke-width=".9" opacity=".62"/>
  <g filter="url(#glow)">
    <path fill="url(#metal)" d="M50 10 L54.5 38 L50 34 L45.5 38 Z"/><path fill="url(#metalDark)" d="M50 90 L54.5 62 L50 66 L45.5 62 Z"/>
    <path fill="url(#metal)" d="M10 50 L38 45.5 L34 50 L38 54.5 Z"/><path fill="url(#metalDark)" d="M90 50 L62 45.5 L66 50 L62 54.5 Z"/>
    <path fill="url(#metal)" opacity=".92" d="M22 22 L42 40 L38 44 L20 26 Z"/><path fill="url(#metalDark)" opacity=".92" d="M78 78 L58 60 L62 56 L80 74 Z"/>
    <path fill="url(#metalDark)" opacity=".92" d="M78 22 L60 40 L56 36 L74 18 Z"/><path fill="url(#metal)" opacity=".92" d="M22 78 L40 60 L44 64 L26 82 Z"/>
  </g>
  <g stroke-width="1.3" opacity=".85">
    <line x1="50" y1="50" x2="74" y2="24" stroke="#ff9000"/><line x1="50" y1="50" x2="76" y2="72" stroke="#ff9000"/>
    <line x1="50" y1="50" x2="28" y2="74" stroke="#70ad47"/><line x1="50" y1="50" x2="26" y2="28" stroke="#02c8ff"/>
  </g>
  <g filter="url(#soft)">
    <circle cx="74" cy="24" r="5.2" fill="#ff9000"/><circle cx="76" cy="72" r="5.2" fill="#ff9000"/>
    <circle cx="28" cy="74" r="5.2" fill="#70ad47"/><circle cx="26" cy="28" r="5.2" fill="#02c8ff"/>
  </g>
  <circle cx="50" cy="50" r="18" fill="url(#coreHalo)" filter="url(#coreGlow)"/>
  <circle cx="50" cy="50" r="11.5" fill="url(#sphere)" filter="url(#coreGlow)"/>
  <circle cx="46" cy="45.5" r="3.5" fill="#fff" opacity=".75"/>
</svg>
