<svg xmlns="http://www.w3.org/2000/svg" viewBox="0 0 100 100" fill="none" aria-hidden="true">
  <defs>
    <radialGradient id="sphere" cx="46%" cy="36%" r="62%"><stop offset="0%" stop-color="#ffffff"/><stop offset="35%" stop-color="#9eefff"/><stop offset="70%" stop-color="#02c8ff"/><stop offset="100%" stop-color="#0848b8"/></radialGradient>
    <linearGradient id="metal" x1="12" y1="8" x2="88" y2="92"><stop offset="0%" stop-color="#f4fcff"/><stop offset="30%" stop-color="#c9e4f4"/><stop offset="55%" stop-color="#58acd8"/><stop offset="100%" stop-color="#1e5a8a"/></linearGradient>
    <linearGradient id="metalDark" x1="88" y1="12" x2="12" y2="88"><stop offset="0%" stop-color="#0e2840"/><stop offset="50%" stop-color="#2e75b6"/><stop offset="100%" stop-color="#88c4e4"/></linearGradient>
    <linearGradient id="bezel" x1="0" y1="0" x2="100" y2="100"><stop offset="0%" stop-color="#f0e4c8"/><stop offset="35%" stop-color="#c8dce8"/><stop offset="100%" stop-color="#58acd8"/></linearGradient>
    <radialGradient id="halo" cx="50%" cy="50%" r="52%"><stop offset="45%" stop-color="#02c8ff" stop-opacity="0"/><stop offset="80%" stop-color="#02c8ff" stop-opacity=".32"/><stop offset="100%" stop-color="#0a60ff" stop-opacity="0"/></radialGradient>
    <filter id="glow"><feGaussianBlur stdDeviation="3" result="b"/><feMerge><feMergeNode in="b"/><feMergeNode in="SourceGraphic"/></feMerge></filter>
    <filter id="core"><feGaussianBlur stdDeviation="5" result="b"/><feMerge><feMergeNode in="b"/><feMergeNode in="SourceGraphic"/></feMerge></filter>
  </defs>
  <circle cx="50" cy="50" r="48" fill="url(#halo)"/>
  <circle cx="50" cy="50" r="45" stroke="url(#bezel)" stroke-width="2.2"/>
  <circle cx="50" cy="50" r="40" stroke="#58acd8" stroke-width=".55" opacity=".38"/>
  <g stroke="#e0ecf4" stroke-width=".6" opacity=".62" stroke-linecap="round">
    <g transform="rotate(0 50 50)"><line x1="50" y1="5" x2="50" y2="8"/></g>
    <g transform="rotate(10 50 50)"><line x1="50" y1="5" x2="50" y2="7.5"/></g>
    <g transform="rotate(20 50 50)"><line x1="50" y1="5" x2="50" y2="7.5"/></g>
    <g transform="rotate(30 50 50)"><line x1="50" y1="5" x2="50" y2="8"/></g>
    <g transform="rotate(40 50 50)"><line x1="50" y1="5" x2="50" y2="7.5"/></g>
    <g transform="rotate(50 50 50)"><line x1="50" y1="5" x2="50" y2="7.5"/></g>
    <g transform="rotate(60 50 50)"><line x1="50" y1="5" x2="50" y2="8"/></g>
    <g transform="rotate(70 50 50)"><line x1="50" y1="5" x2="50" y2="7.5"/></g>
    <g transform="rotate(80 50 50)"><line x1="50" y1="5" x2="50" y2="7.5"/></g>
    <g transform="rotate(90 50 50)"><line x1="50" y1="5" x2="50" y2="8"/></g>
    <g transform="rotate(100 50 50)"><line x1="50" y1="5" x2="50" y2="7.5"/></g>
    <g transform="rotate(110 50 50)"><line x1="50" y1="5" x2="50" y2="7.5"/></g>
    <g transform="rotate(120 50 50)"><line x1="50" y1="5" x2="50" y2="8"/></g>
    <g transform="rotate(130 50 50)"><line x1="50" y1="5" x2="50" y2="7.5"/></g>
    <g transform="rotate(140 50 50)"><line x1="50" y1="5" x2="50" y2="7.5"/></g>
    <g transform="rotate(150 50 50)"><line x1="50" y1="5" x2="50" y2="8"/></g>
    <g transform="rotate(160 50 50)"><line x1="50" y1="5" x2="50" y2="7.5"/></g>
    <g transform="rotate(170 50 50)"><line x1="50" y1="5" x2="50" y2="7.5"/></g>
    <g transform="rotate(180 50 50)"><line x1="50" y1="5" x2="50" y2="8"/></g>
    <g transform="rotate(190 50 50)"><line x1="50" y1="5" x2="50" y2="7.5"/></g>
    <g transform="rotate(200 50 50)"><line x1="50" y1="5" x2="50" y2="7.5"/></g>
    <g transform="rotate(210 50 50)"><line x1="50" y1="5" x2="50" y2="8"/></g>
    <g transform="rotate(220 50 50)"><line x1="50" y1="5" x2="50" y2="7.5"/></g>
    <g transform="rotate(230 50 50)"><line x1="50" y1="5" x2="50" y2="7.5"/></g>
    <g transform="rotate(240 50 50)"><line x1="50" y1="5" x2="50" y2="8"/></g>
    <g transform="rotate(250 50 50)"><line x1="50" y1="5" x2="50" y2="7.5"/></g>
    <g transform="rotate(260 50 50)"><line x1="50" y1="5" x2="50" y2="7.5"/></g>
    <g transform="rotate(270 50 50)"><line x1="50" y1="5" x2="50" y2="8"/></g>
    <g transform="rotate(280 50 50)"><line x1="50" y1="5" x2="50" y2="7.5"/></g>
    <g transform="rotate(290 50 50)"><line x1="50" y1="5" x2="50" y2="7.5"/></g>
    <g transform="rotate(300 50 50)"><line x1="50" y1="5" x2="50" y2="8"/></g>
    <g transform="rotate(310 50 50)"><line x1="50" y1="5" x2="50" y2="7.5"/></g>
    <g transform="rotate(320 50 50)"><line x1="50" y1="5" x2="50" y2="7.5"/></g>
    <g transform="rotate(330 50 50)"><line x1="50" y1="5" x2="50" y2="8"/></g>
    <g transform="rotate(340 50 50)"><line x1="50" y1="5" x2="50" y2="7.5"/></g>
    <g transform="rotate(350 50 50)"><line x1="50" y1="5" x2="50" y2="7.5"/></g>
  </g>
  <path d="M65 18 A28 28 0 0 1 84 46" stroke="#02c8ff" stroke-width="1" opacity=".38"/>
  <path d="M84 54 A28 28 0 0 1 65 82" stroke="#ff9000" stroke-width="1" opacity=".42"/>
  <path d="M35 82 A28 28 0 0 1 16 54" stroke="#70ad47" stroke-width="1" opacity=".38"/>
  <circle cx="50" cy="50" r="31" stroke="#58acd8" stroke-width=".8" opacity=".42"/>
  <circle cx="50" cy="50" r="23" stroke="#58acd8" stroke-width=".85" opacity=".52"/>
  <g filter="url(#glow)">
    <path fill="url(#metal)" d="M50 8 L55.5 37 L50 32.5 L44.5 37 Z"/><path fill="url(#metalDark)" d="M50 92 L55.5 63 L50 67.5 L44.5 63 Z"/>
    <path fill="url(#metal)" d="M8 50 L37 44.5 L32.5 50 L37 55.5 Z"/><path fill="url(#metalDark)" d="M92 50 L63 44.5 L67.5 50 L63 55.5 Z"/>
    <path fill="url(#metal)" d="M20 20 L40 38 L36 42 L18 24 Z"/><path fill="url(#metalDark)" d="M80 80 L60 62 L64 58 L82 76 Z"/>
    <path fill="url(#metalDark)" d="M80 20 L62 38 L58 34 L76 16 Z"/><path fill="url(#metal)" d="M20 80 L38 62 L42 66 L24 84 Z"/>
  </g>
  <circle cx="72" cy="24" r="4.5" fill="#ff9000" opacity=".95"/><circle cx="76" cy="72" r="4.5" fill="#ff9000"/>
  <circle cx="26" cy="74" r="4.5" fill="#70ad47"/><circle cx="24" cy="28" r="4.5" fill="#02c8ff"/>
  <circle cx="50" cy="50" r="19" fill="#02c8ff" opacity=".15" filter="url(#core)"/>
  <circle cx="50" cy="50" r="11" fill="url(#sphere)" filter="url(#core)"/>
  <circle cx="46" cy="45.5" r="3.6" fill="#fff" opacity=".78"/>
</svg>
