<svg xmlns="http://www.w3.org/2000/svg" viewBox="0 0 100 100" fill="none" aria-hidden="true">
  <defs>
    <radialGradient id="sphere" cx="48%" cy="40%" r="58%"><stop offset="0%" stop-color="#7ee8ff"/><stop offset="45%" stop-color="#02c8ff"/><stop offset="100%" stop-color="#0a60ff"/></radialGradient>
    <linearGradient id="metal" x1="18" y1="12" x2="82" y2="88"><stop offset="0%" stop-color="#d4ecf8"/><stop offset="35%" stop-color="#58acd8"/><stop offset="65%" stop-color="#2e75b6"/><stop offset="100%" stop-color="#8ec8e8"/></linearGradient>
    <linearGradient id="metalDark" x1="82" y1="18" x2="18" y2="82"><stop offset="0%" stop-color="#1a4a72"/><stop offset="50%" stop-color="#2e75b6"/><stop offset="100%" stop-color="#58acd8"/></linearGradient>
    <radialGradient id="halo" cx="50%" cy="50%" r="50%"><stop offset="55%" stop-color="#02c8ff" stop-opacity="0"/><stop offset="85%" stop-color="#02c8ff" stop-opacity=".22"/><stop offset="100%" stop-color="#02c8ff" stop-opacity="0"/></radialGradient>
    <filter id="glow"><feGaussianBlur stdDeviation="2.2" result="b"/><feMerge><feMergeNode in="b"/><feMergeNode in="SourceGraphic"/></feMerge></filter>
  </defs>
  <circle cx="50" cy="50" r="46" fill="url(#halo)"/>
  <circle cx="50" cy="50" r="44" stroke="url(#metal)" stroke-width="1.4" opacity=".75"/>
  <circle cx="50" cy="50" r="38.5" stroke="#58acd8" stroke-width=".6" opacity=".35"/>
  <g stroke="#b8d4ea" stroke-width=".9" opacity=".55" stroke-linecap="round">
    <line x1="50" y1="7" x2="50" y2="11"/><line x1="50" y1="89" x2="50" y2="93"/><line x1="7" y1="50" x2="11" y2="50"/><line x1="89" y1="50" x2="93" y2="50"/>
    <line x1="23.8" y1="23.8" x2="26.6" y2="26.6"/><line x1="73.4" y1="73.4" x2="76.2" y2="76.2"/><line x1="76.2" y1="23.8" x2="73.4" y2="26.6"/><line x1="26.6" y1="73.4" x2="23.8" y2="76.2"/>
  </g>
  <path d="M62 24 A22 22 0 0 1 78 42" stroke="#02c8ff" stroke-width=".8" opacity=".28"/>
  <path d="M78 58 A22 22 0 0 1 62 76" stroke="#ff9000" stroke-width=".8" opacity=".32"/>
  <path d="M38 76 A22 22 0 0 1 22 58" stroke="#70ad47" stroke-width=".8" opacity=".3"/>
  <circle cx="50" cy="50" r="32" stroke="#58acd8" stroke-width=".9" opacity=".42"/>
  <circle cx="50" cy="50" r="24" stroke="#58acd8" stroke-width=".9" opacity=".52"/>
  <circle cx="50" cy="50" r="16" stroke="#58acd8" stroke-width=".9" opacity=".62"/>
  <g filter="url(#glow)">
    <path fill="url(#metal)" d="M50 8 L56 40 L50 35 L44 40 Z"/><path fill="url(#metalDark)" d="M50 92 L56 60 L50 65 L44 60 Z"/>
    <path fill="url(#metal)" d="M8 50 L40 44 L35 50 L40 56 Z"/><path fill="url(#metalDark)" d="M92 50 L60 44 L65 50 L60 56 Z"/>
    <path fill="url(#metal)" opacity=".92" d="M22 22 L42 40 L38 44 L20 26 Z"/><path fill="url(#metalDark)" opacity=".92" d="M78 78 L58 60 L62 56 L80 74 Z"/>
    <path fill="url(#metalDark)" opacity=".92" d="M78 22 L60 40 L56 36 L74 18 Z"/><path fill="url(#metal)" opacity=".92" d="M22 78 L40 60 L44 64 L26 82 Z"/>
  </g>
  <line x1="50" y1="50" x2="74" y2="24" stroke="#ff9000" stroke-width="1.2" opacity=".85"/>
  <line x1="50" y1="50" x2="76" y2="72" stroke="#ff9000" stroke-width="1.2" opacity=".85"/>
  <line x1="50" y1="50" x2="28" y2="74" stroke="#70ad47" stroke-width="1.2" opacity=".85"/>
  <line x1="50" y1="50" x2="26" y2="28" stroke="#02c8ff" stroke-width="1.2" opacity=".85"/>
  <circle cx="74" cy="24" r="5.2" fill="#ff9000"/><circle cx="76" cy="72" r="5.2" fill="#ff9000"/>
  <circle cx="28" cy="74" r="5.2" fill="#70ad47"/><circle cx="26" cy="28" r="5.2" fill="#02c8ff"/>
  <circle cx="50" cy="50" r="10.5" fill="url(#sphere)" filter="url(#glow)"/>
  <circle cx="47.5" cy="47" r="2.8" fill="#fff" opacity=".55"/>
</svg>
