<svg xmlns="http://www.w3.org/2000/svg" viewBox="0 0 100 100" fill="none" aria-hidden="true">
  <defs>
    <radialGradient id="sphere" cx="47%" cy="37%" r="64%"><stop offset="0%" stop-color="#ffffff"/><stop offset="28%" stop-color="#b0f0ff"/><stop offset="58%" stop-color="#02c8ff"/><stop offset="100%" stop-color="#0a60ff"/></radialGradient>
    <linearGradient id="metal" x1="14" y1="10" x2="86" y2="90"><stop offset="0%" stop-color="#fff8ec"/><stop offset="22%" stop-color="#e8d4a8"/><stop offset="48%" stop-color="#9ecae8"/><stop offset="100%" stop-color="#2e75b6"/></linearGradient>
    <linearGradient id="metalDark" x1="86" y1="14" x2="14" y2="86"><stop offset="0%" stop-color="#5a4020"/><stop offset="45%" stop-color="#1e5a8a"/><stop offset="100%" stop-color="#88c8e8"/></linearGradient>
    <linearGradient id="bezel" x1="0" y1="50" x2="100" y2="50"><stop offset="0%" stop-color="#c8a060"/><stop offset="20%" stop-color="#f0e8d8"/><stop offset="50%" stop-color="#d4ecf8"/><stop offset="80%" stop-color="#f0e8d8"/><stop offset="100%" stop-color="#c8a060"/></linearGradient>
    <radialGradient id="halo" cx="50%" cy="50%" r="52%"><stop offset="50%" stop-color="#02c8ff" stop-opacity="0"/><stop offset="84%" stop-color="#02c8ff" stop-opacity=".3"/><stop offset="100%" stop-color="#ff9000" stop-opacity=".06"/></radialGradient>
    <filter id="glow"><feGaussianBlur stdDeviation="2.8" result="b"/><feMerge><feMergeNode in="b"/><feMergeNode in="SourceGraphic"/></feMerge></filter>
    <filter id="core"><feGaussianBlur stdDeviation="4" result="b"/><feMerge><feMergeNode in="b"/><feMergeNode in="SourceGraphic"/></feMerge></filter>
    <filter id="soft"><feGaussianBlur stdDeviation="1.5" result="b"/><feMerge><feMergeNode in="b"/><feMergeNode in="SourceGraphic"/></feMerge></filter>
  </defs>
  <circle cx="50" cy="50" r="47" fill="url(#halo)"/>
  <circle cx="50" cy="50" r="45" stroke="url(#bezel)" stroke-width="2.4"/>
  <circle cx="50" cy="50" r="39.5" stroke="#58acd8" stroke-width=".6" opacity=".36"/>
  <g stroke="#e8dcc8" stroke-width=".65" opacity=".64" stroke-linecap="round">
    <g transform="rotate(0 50 50)"><line x1="50" y1="5.5" x2="50" y2="9"/></g>
    <g transform="rotate(12 50 50)"><line x1="50" y1="5.5" x2="50" y2="8.2"/></g>
    <g transform="rotate(24 50 50)"><line x1="50" y1="5.5" x2="50" y2="8.2"/></g>
    <g transform="rotate(36 50 50)"><line x1="50" y1="5.5" x2="50" y2="9"/></g>
    <g transform="rotate(48 50 50)"><line x1="50" y1="5.5" x2="50" y2="8.2"/></g>
    <g transform="rotate(60 50 50)"><line x1="50" y1="5.5" x2="50" y2="8.2"/></g>
    <g transform="rotate(72 50 50)"><line x1="50" y1="5.5" x2="50" y2="9"/></g>
    <g transform="rotate(84 50 50)"><line x1="50" y1="5.5" x2="50" y2="8.2"/></g>
    <g transform="rotate(96 50 50)"><line x1="50" y1="5.5" x2="50" y2="8.2"/></g>
    <g transform="rotate(108 50 50)"><line x1="50" y1="5.5" x2="50" y2="9"/></g>
    <g transform="rotate(120 50 50)"><line x1="50" y1="5.5" x2="50" y2="8.2"/></g>
    <g transform="rotate(132 50 50)"><line x1="50" y1="5.5" x2="50" y2="8.2"/></g>
    <g transform="rotate(144 50 50)"><line x1="50" y1="5.5" x2="50" y2="9"/></g>
    <g transform="rotate(156 50 50)"><line x1="50" y1="5.5" x2="50" y2="8.2"/></g>
    <g transform="rotate(168 50 50)"><line x1="50" y1="5.5" x2="50" y2="8.2"/></g>
    <g transform="rotate(180 50 50)"><line x1="50" y1="5.5" x2="50" y2="9"/></g>
    <g transform="rotate(192 50 50)"><line x1="50" y1="5.5" x2="50" y2="8.2"/></g>
    <g transform="rotate(204 50 50)"><line x1="50" y1="5.5" x2="50" y2="8.2"/></g>
    <g transform="rotate(216 50 50)"><line x1="50" y1="5.5" x2="50" y2="9"/></g>
    <g transform="rotate(228 50 50)"><line x1="50" y1="5.5" x2="50" y2="8.2"/></g>
    <g transform="rotate(240 50 50)"><line x1="50" y1="5.5" x2="50" y2="8.2"/></g>
    <g transform="rotate(252 50 50)"><line x1="50" y1="5.5" x2="50" y2="9"/></g>
    <g transform="rotate(264 50 50)"><line x1="50" y1="5.5" x2="50" y2="8.2"/></g>
    <g transform="rotate(276 50 50)"><line x1="50" y1="5.5" x2="50" y2="8.2"/></g>
    <g transform="rotate(288 50 50)"><line x1="50" y1="5.5" x2="50" y2="9"/></g>
    <g transform="rotate(300 50 50)"><line x1="50" y1="5.5" x2="50" y2="8.2"/></g>
    <g transform="rotate(312 50 50)"><line x1="50" y1="5.5" x2="50" y2="8.2"/></g>
    <g transform="rotate(324 50 50)"><line x1="50" y1="5.5" x2="50" y2="9"/></g>
    <g transform="rotate(336 50 50)"><line x1="50" y1="5.5" x2="50" y2="8.2"/></g>
    <g transform="rotate(348 50 50)"><line x1="50" y1="5.5" x2="50" y2="8.2"/></g>
  </g>
  <path d="M64 20 A26 26 0 0 1 82 44" stroke="#02c8ff" stroke-width=".9" opacity=".36"/>
  <path d="M82 56 A26 26 0 0 1 64 80" stroke="#ff9000" stroke-width=".9" opacity=".4"/>
  <path d="M36 80 A26 26 0 0 1 18 56" stroke="#70ad47" stroke-width=".9" opacity=".36"/>
  <circle cx="50" cy="50" r="31" stroke="#58acd8" stroke-width=".82" opacity=".44"/>
  <circle cx="50" cy="50" r="23" stroke="#58acd8" stroke-width=".86" opacity=".54"/>
  <g filter="url(#glow)">
    <path fill="url(#metal)" d="M50 8 L56 38 L50 33 L44 38 Z"/><path fill="url(#metalDark)" d="M50 92 L56 62 L50 67 L44 62 Z"/>
    <path fill="url(#metal)" d="M8 50 L38 44 L33 50 L38 56 Z"/><path fill="url(#metalDark)" d="M92 50 L62 44 L67 50 L62 56 Z"/>
    <path fill="url(#metal)" d="M20 20 L40 38 L36 42 L18 24 Z"/><path fill="url(#metalDark)" d="M80 80 L60 62 L64 58 L82 76 Z"/>
    <path fill="url(#metalDark)" d="M80 20 L62 38 L58 34 L76 16 Z"/><path fill="url(#metal)" d="M20 80 L38 62 L42 66 L24 84 Z"/>
  </g>
  <g filter="url(#soft)">
    <circle cx="74" cy="22" r="5.2" fill="#ff9000"/><circle cx="76" cy="74" r="5.2" fill="#ff9000"/>
    <circle cx="26" cy="76" r="5.2" fill="#70ad47"/><circle cx="24" cy="26" r="5.2" fill="#02c8ff"/>
    <circle cx="36" cy="58" r="3" fill="#70ad47"/><circle cx="40" cy="66" r="3" fill="#70ad47"/>
  </g>
  <circle cx="50" cy="50" r="18" fill="#02c8ff" opacity=".14" filter="url(#core)"/>
  <circle cx="50" cy="50" r="10.8" fill="url(#sphere)" filter="url(#core)"/>
  <circle cx="46.5" cy="45.5" r="3.3" fill="#fff" opacity=".75"/>
</svg>
